<svg xmlns="http://www.w3.org/2000/svg" width="49.8" height="49.8" viewBox="0 0 13.176 13.176" fill="#0055d4"><circle cx="6.588" cy="6.588" r="6.588"/><path fill="#b0cfff" d="M8.206 9.727c.235 0 .195-.089.276-.312l.45-1.911L3.613 4.35"/><path fill="#4c8ced" d="M8.206 9.727c-.18 0-.26-.083-.362-.181l-1.208-.577 1.206-.727"/><path fill="#fff" d="M7.841 8.241 5.403 9.675c-.333.184-.574.089-.657-.31l-1.31-4.638c-.122-.488.186-.71.505-.565l6.621 1.848c.477.191.474.457.087.576L8.857 7.75 5.433 5.616c-.196-.119-.376-.055-.228.076"/></svg>